<svg xmlns="http://www.w3.org/2000/svg" xmlns:xlink="http://www.w3.org/1999/xlink" contentStyleType="text/css" data-diagram-type="CLASS" height="868px" preserveAspectRatio="none" style="width:810px;height:868px;background:#FFFFFF;" version="1.1" viewBox="0 0 810 868" width="810px" zoomAndPan="magnify"><?plantuml 1.2026.3beta6?><defs/><g><!--class Users--><g class="entity" data-qualified-name="Users" data-source-line="5" id="ent0002"><rect fill="#F1F1F1" height="145.7813" rx="2.5" ry="2.5" style="stroke:#181818;stroke-width:0.5;" width="169.7324" x="461.36" y="7"/><ellipse cx="522.3742" cy="23" fill="#ADD1B2" rx="11" ry="11" style="stroke:#181818;stroke-width:1;"/><path d="M525.3429,28.6406 Q524.7648,28.9375 524.1242,29.0781 Q523.4835,29.2344 522.7804,29.2344 Q520.2804,29.2344 518.9523,27.5938 Q517.6398,25.9375 517.6398,22.8125 Q517.6398,19.6875 518.9523,18.0313 Q520.2804,16.375 522.7804,16.375 Q523.4835,16.375 524.1242,16.5313 Q524.7804,16.6875 525.3429,16.9844 L525.3429,19.7031 Q524.7179,19.125 524.1242,18.8594 Q523.5304,18.5781 522.9054,18.5781 Q521.5617,18.5781 520.8742,19.6563 Q520.1867,20.7188 520.1867,22.8125 Q520.1867,24.9063 520.8742,25.9844 Q521.5617,27.0469 522.9054,27.0469 Q523.5304,27.0469 524.1242,26.7813 Q524.7179,26.5 525.3429,25.9219 L525.3429,28.6406 Z " fill="#000000"/><text fill="#000000" font-family="sans-serif" font-size="14" lengthAdjust="spacing" textLength="39.2041" x="542.8742" y="27.8467">Users</text><line style="stroke:#181818;stroke-width:0.5;" x1="462.36" x2="630.0924" y1="39" y2="39"/><text fill="#000000" font-family="sans-serif" font-size="14" lengthAdjust="spacing" textLength="95.5801" x="467.36" y="55.9951">+id : int &#171;PK&#187;</text><text fill="#000000" font-family="sans-serif" font-size="14" lengthAdjust="spacing" textLength="124.0449" x="467.36" y="72.292">username : string</text><text fill="#000000" font-family="sans-serif" font-size="14" lengthAdjust="spacing" textLength="92.415" x="467.36" y="88.5889">email : string</text><text fill="#000000" font-family="sans-serif" font-size="14" lengthAdjust="spacing" textLength="120.5176" x="467.36" y="104.8857">password : string</text><text fill="#000000" font-family="sans-serif" font-size="14" lengthAdjust="spacing" textLength="157.7324" x="467.36" y="121.1826">is_superuser : boolean</text><text fill="#000000" font-family="sans-serif" font-size="14" lengthAdjust="spacing" textLength="102.0674" x="467.36" y="137.4795">groups : string</text><line style="stroke:#181818;stroke-width:0.5;" x1="462.36" x2="630.0924" y1="144.7813" y2="144.7813"/></g><!--class UserProfile--><g class="entity" data-qualified-name="UserProfile" data-source-line="14" id="ent0003"><rect fill="#F1F1F1" height="145.7813" rx="2.5" ry="2.5" style="stroke:#181818;stroke-width:0.5;" width="186.46" x="7" y="246.08"/><ellipse cx="57.9824" cy="262.08" fill="#ADD1B2" rx="11" ry="11" style="stroke:#181818;stroke-width:1;"/><path d="M60.9512,267.7206 Q60.373,268.0175 59.7324,268.1581 Q59.0918,268.3144 58.3887,268.3144 Q55.8887,268.3144 54.5605,266.6738 Q53.248,265.0175 53.248,261.8925 Q53.248,258.7675 54.5605,257.1113 Q55.8887,255.455 58.3887,255.455 Q59.0918,255.455 59.7324,255.6113 Q60.3887,255.7675 60.9512,256.0644 L60.9512,258.7831 Q60.3262,258.205 59.7324,257.9394 Q59.1387,257.6581 58.5137,257.6581 Q57.1699,257.6581 56.4824,258.7363 Q55.7949,259.7988 55.7949,261.8925 Q55.7949,263.9863 56.4824,265.0644 Q57.1699,266.1269 58.5137,266.1269 Q59.1387,266.1269 59.7324,265.8613 Q60.3262,265.58 60.9512,265.0019 L60.9512,267.7206 Z " fill="#000000"/><text fill="#000000" font-family="sans-serif" font-size="14" lengthAdjust="spacing" textLength="75.9951" x="78.4824" y="266.9267">UserProfile</text><line style="stroke:#181818;stroke-width:0.5;" x1="8" x2="192.46" y1="278.08" y2="278.08"/><text fill="#000000" font-family="sans-serif" font-size="14" lengthAdjust="spacing" textLength="95.5801" x="13" y="295.0751">+id : int &#171;PK&#187;</text><text fill="#000000" font-family="sans-serif" font-size="14" lengthAdjust="spacing" textLength="120.9961" x="13" y="311.372">user_id : int &#171;FK&#187;</text><text fill="#000000" font-family="sans-serif" font-size="14" lengthAdjust="spacing" textLength="62.8359" x="13" y="327.6689">bio : text</text><text fill="#000000" font-family="sans-serif" font-size="14" lengthAdjust="spacing" textLength="109.3545" x="13" y="343.9657">location : string</text><text fill="#000000" font-family="sans-serif" font-size="14" lengthAdjust="spacing" textLength="174.46" x="13" y="360.2626">profile_image_url : string</text><text fill="#000000" font-family="sans-serif" font-size="14" lengthAdjust="spacing" textLength="145.4961" x="13" y="376.5595">service_radius : float</text><line style="stroke:#181818;stroke-width:0.5;" x1="8" x2="192.46" y1="383.8613" y2="383.8613"/></g><!--class Pet--><g class="entity" data-qualified-name="Pet" data-source-line="23" id="ent0004"><rect fill="#F1F1F1" height="178.375" rx="2.5" ry="2.5" style="stroke:#181818;stroke-width:0.5;" width="196.2422" x="228.11" y="229.78"/><ellipse cx="310.7086" cy="245.78" fill="#ADD1B2" rx="11" ry="11" style="stroke:#181818;stroke-width:1;"/><path d="M313.6774,251.4206 Q313.0993,251.7175 312.4586,251.8581 Q311.818,252.0144 311.1149,252.0144 Q308.6149,252.0144 307.2868,250.3737 Q305.9743,248.7175 305.9743,245.5925 Q305.9743,242.4675 307.2868,240.8112 Q308.6149,239.155 311.1149,239.155 Q311.818,239.155 312.4586,239.3112 Q313.1149,239.4675 313.6774,239.7644 L313.6774,242.4831 Q313.0524,241.905 312.4586,241.6394 Q311.8649,241.3581 311.2399,241.3581 Q309.8961,241.3581 309.2086,242.4362 Q308.5211,243.4987 308.5211,245.5925 Q308.5211,247.6862 309.2086,248.7644 Q309.8961,249.8269 311.2399,249.8269 Q311.8649,249.8269 312.4586,249.5612 Q313.0524,249.28 313.6774,248.7019 L313.6774,251.4206 Z " fill="#000000"/><text fill="#000000" font-family="sans-serif" font-size="14" lengthAdjust="spacing" textLength="22.5449" x="331.2086" y="250.6267">Pet</text><line style="stroke:#181818;stroke-width:0.5;" x1="229.11" x2="423.3522" y1="261.78" y2="261.78"/><text fill="#000000" font-family="sans-serif" font-size="14" lengthAdjust="spacing" textLength="95.5801" x="234.11" y="278.7751">+id : int &#171;PK&#187;</text><text fill="#000000" font-family="sans-serif" font-size="14" lengthAdjust="spacing" textLength="133.7178" x="234.11" y="295.072">owner_id : int &#171;FK&#187;</text><text fill="#000000" font-family="sans-serif" font-size="14" lengthAdjust="spacing" textLength="93.5088" x="234.11" y="311.3689">name : string</text><text fill="#000000" font-family="sans-serif" font-size="14" lengthAdjust="spacing" textLength="94.5615" x="234.11" y="327.6657">breed : string</text><text fill="#000000" font-family="sans-serif" font-size="14" lengthAdjust="spacing" textLength="57.9482" x="234.11" y="343.9626">age : int</text><text fill="#000000" font-family="sans-serif" font-size="14" lengthAdjust="spacing" textLength="92.2715" x="234.11" y="360.2595">weight : float</text><text fill="#000000" font-family="sans-serif" font-size="14" lengthAdjust="spacing" textLength="184.2422" x="234.11" y="376.5564">vaccination_status : string</text><text fill="#000000" font-family="sans-serif" font-size="14" lengthAdjust="spacing" textLength="176.9824" x="234.11" y="392.8532">behavioral_triggers : text</text><line style="stroke:#181818;stroke-width:0.5;" x1="229.11" x2="423.3522" y1="400.155" y2="400.155"/></g><!--class Gig--><g class="entity" data-qualified-name="Gig" data-source-line="34" id="ent0005"><rect fill="#F1F1F1" height="162.0781" rx="2.5" ry="2.5" style="stroke:#181818;stroke-width:0.5;" width="174.1621" x="459.15" y="237.93"/><ellipse cx="530.1686" cy="253.93" fill="#ADD1B2" rx="11" ry="11" style="stroke:#181818;stroke-width:1;"/><path d="M533.1373,259.5706 Q532.5592,259.8675 531.9186,260.0081 Q531.2779,260.1644 530.5748,260.1644 Q528.0748,260.1644 526.7467,258.5238 Q525.4342,256.8675 525.4342,253.7425 Q525.4342,250.6175 526.7467,248.9613 Q528.0748,247.305 530.5748,247.305 Q531.2779,247.305 531.9186,247.4613 Q532.5748,247.6175 533.1373,247.9144 L533.1373,250.6331 Q532.5123,250.055 531.9186,249.7894 Q531.3248,249.5081 530.6998,249.5081 Q529.3561,249.5081 528.6686,250.5863 Q527.9811,251.6488 527.9811,253.7425 Q527.9811,255.8363 528.6686,256.9144 Q529.3561,257.9769 530.6998,257.9769 Q531.3248,257.9769 531.9186,257.7113 Q532.5123,257.43 533.1373,256.8519 L533.1373,259.5706 Z " fill="#000000"/><text fill="#000000" font-family="sans-serif" font-size="14" lengthAdjust="spacing" textLength="23.625" x="550.6686" y="258.7767">Gig</text><line style="stroke:#181818;stroke-width:0.5;" x1="460.15" x2="632.3121" y1="269.93" y2="269.93"/><text fill="#000000" font-family="sans-serif" font-size="14" lengthAdjust="spacing" textLength="95.5801" x="465.15" y="286.9251">+id : int &#171;PK&#187;</text><text fill="#000000" font-family="sans-serif" font-size="14" lengthAdjust="spacing" textLength="149.0986" x="465.15" y="303.222">provider_id : int &#171;FK&#187;</text><text fill="#000000" font-family="sans-serif" font-size="14" lengthAdjust="spacing" textLength="81.1768" x="465.15" y="319.5189">title : string</text><text fill="#000000" font-family="sans-serif" font-size="14" lengthAdjust="spacing" textLength="115.6777" x="465.15" y="335.8157">category : string</text><text fill="#000000" font-family="sans-serif" font-size="14" lengthAdjust="spacing" textLength="124.749" x="465.15" y="352.1126">hourly_rate : float</text><text fill="#000000" font-family="sans-serif" font-size="14" lengthAdjust="spacing" textLength="119.335" x="465.15" y="368.4095">description : text</text><text fill="#000000" font-family="sans-serif" font-size="14" lengthAdjust="spacing" textLength="162.1621" x="465.15" y="384.7064">active_status : boolean</text><line style="stroke:#181818;stroke-width:0.5;" x1="460.15" x2="632.3121" y1="392.0081" y2="392.0081"/></g><!--class Booking--><g class="entity" data-qualified-name="Booking" data-source-line="44" id="ent0006"><rect fill="#F1F1F1" height="145.7813" rx="2.5" ry="2.5" style="stroke:#181818;stroke-width:0.5;" width="192.8994" x="440.78" y="485.16"/><ellipse cx="504.7336" cy="501.16" fill="#ADD1B2" rx="11" ry="11" style="stroke:#181818;stroke-width:1;"/><path d="M507.7024,506.8006 Q507.1242,507.0975 506.4836,507.2381 Q505.843,507.3944 505.1399,507.3944 Q502.6399,507.3944 501.3117,505.7538 Q499.9992,504.0975 499.9992,500.9725 Q499.9992,497.8475 501.3117,496.1913 Q502.6399,494.535 505.1399,494.535 Q505.843,494.535 506.4836,494.6913 Q507.1399,494.8475 507.7024,495.1444 L507.7024,497.8631 Q507.0774,497.285 506.4836,497.0194 Q505.8899,496.7381 505.2649,496.7381 Q503.9211,496.7381 503.2336,497.8163 Q502.5461,498.8788 502.5461,500.9725 Q502.5461,503.0663 503.2336,504.1444 Q503.9211,505.2069 505.2649,505.2069 Q505.8899,505.2069 506.4836,504.9413 Q507.0774,504.66 507.7024,504.0819 L507.7024,506.8006 Z " fill="#000000"/><text fill="#000000" font-family="sans-serif" font-size="14" lengthAdjust="spacing" textLength="56.4922" x="525.2336" y="506.0067">Booking</text><line style="stroke:#181818;stroke-width:0.5;" x1="441.78" x2="632.6794" y1="517.16" y2="517.16"/><text fill="#000000" font-family="sans-serif" font-size="14" lengthAdjust="spacing" textLength="95.5801" x="446.78" y="534.1551">+id : int &#171;PK&#187;</text><text fill="#000000" font-family="sans-serif" font-size="14" lengthAdjust="spacing" textLength="113.4492" x="446.78" y="550.452">pet_id : int &#171;FK&#187;</text><text fill="#000000" font-family="sans-serif" font-size="14" lengthAdjust="spacing" textLength="112.123" x="446.78" y="566.7489">gig_id : int &#171;FK&#187;</text><text fill="#000000" font-family="sans-serif" font-size="14" lengthAdjust="spacing" textLength="180.8994" x="446.78" y="583.0457">proposed_time : datetime</text><text fill="#000000" font-family="sans-serif" font-size="14" lengthAdjust="spacing" textLength="96.8242" x="446.78" y="599.3426">status : string</text><text fill="#000000" font-family="sans-serif" font-size="14" lengthAdjust="spacing" textLength="118.9248" x="446.78" y="615.6395">total_price : float</text><line style="stroke:#181818;stroke-width:0.5;" x1="441.78" x2="632.6794" y1="622.9413" y2="622.9413"/></g><!--class Review--><g class="entity" data-qualified-name="Review" data-source-line="53" id="ent0007"><rect fill="#F1F1F1" height="145.7813" rx="2.5" ry="2.5" style="stroke:#181818;stroke-width:0.5;" width="158.2344" x="607.11" y="707.94"/><ellipse cx="656.6876" cy="723.94" fill="#ADD1B2" rx="11" ry="11" style="stroke:#181818;stroke-width:1;"/><path d="M659.6564,729.5806 Q659.0783,729.8775 658.4376,730.0181 Q657.797,730.1744 657.0939,730.1744 Q654.5939,730.1744 653.2658,728.5338 Q651.9533,726.8775 651.9533,723.7525 Q651.9533,720.6275 653.2658,718.9713 Q654.5939,717.315 657.0939,717.315 Q657.797,717.315 658.4376,717.4713 Q659.0939,717.6275 659.6564,717.9244 L659.6564,720.6431 Q659.0314,720.065 658.4376,719.7994 Q657.8439,719.5181 657.2189,719.5181 Q655.8751,719.5181 655.1876,720.5963 Q654.5001,721.6588 654.5001,723.7525 Q654.5001,725.8463 655.1876,726.9244 Q655.8751,727.9869 657.2189,727.9869 Q657.8439,727.9869 658.4376,727.7213 Q659.0314,727.44 659.6564,726.8619 L659.6564,729.5806 Z " fill="#000000"/><text fill="#000000" font-family="sans-serif" font-size="14" lengthAdjust="spacing" textLength="50.5791" x="677.1876" y="728.7867">Review</text><line style="stroke:#181818;stroke-width:0.5;" x1="608.11" x2="764.3444" y1="739.94" y2="739.94"/><text fill="#000000" font-family="sans-serif" font-size="14" lengthAdjust="spacing" textLength="95.5801" x="613.11" y="756.9351">+id : int &#171;PK&#187;</text><text fill="#000000" font-family="sans-serif" font-size="14" lengthAdjust="spacing" textLength="146.2344" x="613.11" y="773.232">booking_id : int &#171;FK&#187;</text><text fill="#000000" font-family="sans-serif" font-size="14" lengthAdjust="spacing" textLength="73.3428" x="613.11" y="789.5289">rating : int</text><text fill="#000000" font-family="sans-serif" font-size="14" lengthAdjust="spacing" textLength="108.0078" x="613.11" y="805.8257">comment : text</text><text fill="#000000" font-family="sans-serif" font-size="14" lengthAdjust="spacing" textLength="97.7813" x="613.11" y="822.1226">author_id : int</text><text fill="#000000" font-family="sans-serif" font-size="14" lengthAdjust="spacing" textLength="94.459" x="613.11" y="838.4195">target_id : int</text><line style="stroke:#181818;stroke-width:0.5;" x1="608.11" x2="764.3444" y1="845.7213" y2="845.7213"/></g><!--link Users to UserProfile--><g class="link" data-entity-1="ent0002" data-entity-2="ent0003" data-link-type="association" data-source-line="64" id="lnk8"><path codeLine="64" d="M461.07,111.56 C391.28,138.33 291.18,180.55 210.23,229.78 C202.18,234.68 194.06,240.1 186.08,245.77" fill="none" id="Users-UserProfile" style="stroke:#181818;stroke-width:1;"/><text fill="#000000" font-family="sans-serif" font-size="13" lengthAdjust="spacing" textLength="22.9785" x="291.23" y="195.8469">has</text><text fill="#000000" font-family="sans-serif" font-size="13" lengthAdjust="spacing" textLength="8.271" x="445.1416" y="110.7854">1</text><text fill="#000000" font-family="sans-serif" font-size="13" lengthAdjust="spacing" textLength="8.271" x="186.1504" y="234.8995">1</text></g><!--link Users to Pet--><g class="link" data-entity-1="ent0002" data-entity-2="ent0004" data-link-type="association" data-source-line="66" id="lnk9"><path codeLine="66" d="M479.33,152.99 C456.95,177.1 431.75,204.26 408.35,229.48" fill="none" id="Users-Pet" style="stroke:#181818;stroke-width:1;"/><text fill="#000000" font-family="sans-serif" font-size="13" lengthAdjust="spacing" textLength="33.5981" x="451.23" y="195.8469">owns</text><text fill="#000000" font-family="sans-serif" font-size="13" lengthAdjust="spacing" textLength="8.271" x="464.5856" y="172.7454">1</text><text fill="#000000" font-family="sans-serif" font-size="13" lengthAdjust="spacing" textLength="36.5625" x="377.4819" y="218.8235">many</text></g><!--link Users to Gig--><g class="link" data-entity-1="ent0002" data-entity-2="ent0005" data-link-type="association" data-source-line="68" id="lnk10"><path codeLine="68" d="M546.23,152.99 C546.23,179.69 546.23,210.13 546.23,237.52" fill="none" id="Users-Gig" style="stroke:#181818;stroke-width:1;"/><text fill="#000000" font-family="sans-serif" font-size="13" lengthAdjust="spacing" textLength="55.8784" x="547.23" y="195.8469">provides</text><text fill="#000000" font-family="sans-serif" font-size="13" lengthAdjust="spacing" textLength="8.271" x="537.862" y="172.7454">1</text><text fill="#000000" font-family="sans-serif" font-size="13" lengthAdjust="spacing" textLength="36.5625" x="508.7072" y="226.9485">many</text></g><!--link Pet to Booking--><g class="link" data-entity-1="ent0004" data-entity-2="ent0006" data-link-type="association" data-source-line="70" id="lnk11"><path codeLine="70" d="M405.1,408.59 C427.46,433.71 451.52,460.75 472.91,484.78" fill="none" id="Pet-Booking" style="stroke:#181818;stroke-width:1;"/><text fill="#000000" font-family="sans-serif" font-size="13" lengthAdjust="spacing" textLength="47.2456" x="446.23" y="451.2269">used in</text><text fill="#000000" font-family="sans-serif" font-size="13" lengthAdjust="spacing" textLength="8.271" x="402.8425" y="428.0979">1</text><text fill="#000000" font-family="sans-serif" font-size="13" lengthAdjust="spacing" textLength="36.5625" x="429.0907" y="474.1548">many</text></g><!--link Gig to Booking--><g class="link" data-entity-1="ent0005" data-entity-2="ent0006" data-link-type="association" data-source-line="71" id="lnk12"><path codeLine="71" d="M543.18,400.23 C542.14,427.64 540.99,458.1 539.97,484.83" fill="none" id="Gig-Booking" style="stroke:#181818;stroke-width:1;"/><text fill="#000000" font-family="sans-serif" font-size="13" lengthAdjust="spacing" textLength="71.3413" x="543.23" y="451.2269">booked via</text><text fill="#000000" font-family="sans-serif" font-size="13" lengthAdjust="spacing" textLength="8.271" x="534.5641" y="420.2081">1</text><text fill="#000000" font-family="sans-serif" font-size="13" lengthAdjust="spacing" textLength="36.5625" x="502.5424" y="474.2095">many</text></g><!--link Booking to Review--><g class="link" data-entity-1="ent0006" data-entity-2="ent0007" data-link-type="association" data-source-line="73" id="lnk13"><path codeLine="73" d="M567.05,631.36 C574.73,647.2 583.58,663.53 593.23,677.94 C599.96,687.99 607.65,698.04 615.67,707.7" fill="none" id="Booking-Review" style="stroke:#181818;stroke-width:1;"/><text fill="#000000" font-family="sans-serif" font-size="13" lengthAdjust="spacing" textLength="65.6665" x="594.23" y="674.0069">generates</text><text fill="#000000" font-family="sans-serif" font-size="13" lengthAdjust="spacing" textLength="8.271" x="561.4428" y="650.8826">1</text><text fill="#000000" font-family="sans-serif" font-size="13" lengthAdjust="spacing" textLength="8.271" x="600.3441" y="696.8364">1</text></g><!--link Users to Review--><g class="link" data-entity-1="ent0002" data-entity-2="ent0007" data-link-type="association" data-source-line="75" id="lnk14"><path codeLine="75" d="M609.21,153.27 C625.8,176.27 641.71,202.78 651.23,229.78 C681.57,315.85 686.13,579.04 686.48,707.62" fill="none" id="Users-Review" style="stroke:#181818;stroke-width:1;"/><text fill="#000000" font-family="sans-serif" font-size="13" lengthAdjust="spacing" textLength="39.457" x="680.23" y="451.2269">writes</text><text fill="#000000" font-family="sans-serif" font-size="13" lengthAdjust="spacing" textLength="8.271" x="606.6601" y="172.7991">1</text><text fill="#000000" font-family="sans-serif" font-size="13" lengthAdjust="spacing" textLength="36.5625" x="648.7607" y="696.7485">many</text></g><!--link Users to Review--><g class="link" data-entity-1="ent0002" data-entity-2="ent0007" data-link-type="association" data-source-line="76" id="lnk15"><path codeLine="76" d="M631.42,147.41 C654.75,170.66 676.97,198.79 689.23,229.78 C762.57,415.25 744.16,481.07 712.23,677.94 C710.67,687.58 708.62,697.64 706.36,707.53" fill="none" id="Users-Review-1" style="stroke:#181818;stroke-width:1;"/><text fill="#000000" font-family="sans-serif" font-size="13" lengthAdjust="spacing" textLength="54.5645" x="740.23" y="451.2269">receives</text><text fill="#000000" font-family="sans-serif" font-size="13" lengthAdjust="spacing" textLength="8.271" x="639.0967" y="149.6405">1</text><text fill="#000000" font-family="sans-serif" font-size="13" lengthAdjust="spacing" textLength="36.5625" x="710.0213" y="696.9019">many</text></g><?plantuml-src VPF1Rfmm48RlF8MrbnogIEqLfP6sLTAi6hMhR7j6napCg60ZUu1kgxvxnx3icWJ21VWz3D_yC-D_eMcaaxLGbVH-I-GmRmbsofe3_W7nFacknCUbItn-t1uETuVbqoGP4egV7fmNVnCXtc4XKe66nCtD_kljBKij7nfP0-kUVsmqQr1Bh6AXuJIzTKMieSzysu0B2LZFhQr06ZxGphQDluJ-YpdspZvZ1M_HP95yFyevMfO8VXE_L5P9GcjcW6FQ36kf8MlTZ9vpTgWWSxB0De0zLrRIXMiFjCPZUxC8zDAnt07Ct66CyHj-xW5rIUV_2j59fT0CHMIU9BL-bWjAsQ5riifOqZeqxrJy6VaBwZLajgB3Of6QaAePDXi9shfZh9MMxJkoMGGHSW5UEMnElfyw8HLX1vSIfXauOtwobeTx7HLeWLAZNb2vhCPwA3B2mVg2-S9ZwEyh2yaIkzSuxlhhTZz1Xz2lCUKZyW81En9gcRggR5s3eSYDbafxiJrWIAUZ4WF2sY8_tJrkV-o-VpiyxFQhwpmkykR3HbnV3xTuer9HIlyoffRck1a6F0spl78UfYcT1eTZGlmyOcfa6ZQqu6AIyCrQJF2GepgKIJAf4VMf0QdGmDl5VLp1EiVr3aFGcp4E5F0m-ly0?></g></svg>