<svg xmlns="http://www.w3.org/2000/svg" xmlns:xlink="http://www.w3.org/1999/xlink" contentStyleType="text/css" data-diagram-type="SEQUENCE" height="772px" preserveAspectRatio="none" style="width:452px;height:772px;background:#FFFFFF;" version="1.1" viewBox="0 0 452 772" width="452px" zoomAndPan="magnify"><?plantuml 1.2026.3beta6?><defs/><g><g class="participant-lifeline" data-entity-uid="part1" data-qualified-name="Owner" data-source-line="1" id="part1-lifeline"><g><title>Pet Owner</title><rect fill="#000000" fill-opacity="0.00000" height="608.6563" width="8" x="40.3535" y="81.2969"/><line style="stroke:#181818;stroke-width:0.5;stroke-dasharray:5,5;" x1="44" x2="44" y1="81.2969" y2="689.9531"/></g></g><g class="participant-lifeline" data-entity-uid="part2" data-qualified-name="System" data-source-line="2" id="part2-lifeline"><g><title>Booking System</title><rect fill="#000000" fill-opacity="0.00000" height="608.6563" width="8" x="188.9326" y="81.2969"/><line style="stroke:#181818;stroke-width:0.5;stroke-dasharray:5,5;" x1="192.3584" x2="192.3584" y1="81.2969" y2="689.9531"/></g></g><g class="participant-lifeline" data-entity-uid="part3" data-qualified-name="Provider" data-source-line="3" id="part3-lifeline"><g><title>Service Provider</title><rect fill="#000000" fill-opacity="0.00000" height="608.6563" width="8" x="377.083" y="81.2969"/><line style="stroke:#181818;stroke-width:0.5;stroke-dasharray:5,5;" x1="380.8901" x2="380.8901" y1="81.2969" y2="689.9531"/></g></g><g class="participant participant-head" data-entity-uid="part1" data-qualified-name="Owner" data-source-line="1" id="part1-head"><text fill="#000000" font-family="sans-serif" font-size="14" lengthAdjust="spacing" textLength="72.707" x="5" y="77.9951">Pet Owner</text><ellipse cx="44.3535" cy="13.5" fill="#E2E2F0" rx="8" ry="8" style="stroke:#181818;stroke-width:0.5;"/><path d="M44.3535,21.5 L44.3535,48.5 M31.3535,29.5 L57.3535,29.5 M44.3535,48.5 L31.3535,63.5 M44.3535,48.5 L57.3535,63.5" fill="none" style="stroke:#181818;stroke-width:0.5;"/></g><g class="participant participant-tail" data-entity-uid="part1" data-qualified-name="Owner" data-source-line="1" id="part1-tail"><text fill="#000000" font-family="sans-serif" font-size="14" lengthAdjust="spacing" textLength="72.707" x="5" y="701.9482">Pet Owner</text><ellipse cx="44.3535" cy="713.75" fill="#E2E2F0" rx="8" ry="8" style="stroke:#181818;stroke-width:0.5;"/><path d="M44.3535,721.75 L44.3535,748.75 M31.3535,729.75 L57.3535,729.75 M44.3535,748.75 L31.3535,763.75 M44.3535,748.75 L57.3535,763.75" fill="none" style="stroke:#181818;stroke-width:0.5;"/></g><g class="participant participant-head" data-entity-uid="part2" data-qualified-name="System" data-source-line="2" id="part2-head"><rect fill="#E2E2F0" height="30.2969" rx="2.5" ry="2.5" style="stroke:#181818;stroke-width:0.5;" width="127.1484" x="129.3584" y="50"/><text fill="#000000" font-family="sans-serif" font-size="14" lengthAdjust="spacing" textLength="113.1484" x="136.3584" y="69.9951">Booking System</text></g><g class="participant participant-tail" data-entity-uid="part2" data-qualified-name="System" data-source-line="2" id="part2-tail"><rect fill="#E2E2F0" height="30.2969" rx="2.5" ry="2.5" style="stroke:#181818;stroke-width:0.5;" width="127.1484" x="129.3584" y="688.9531"/><text fill="#000000" font-family="sans-serif" font-size="14" lengthAdjust="spacing" textLength="113.1484" x="136.3584" y="708.9482">Booking System</text></g><g class="participant participant-head" data-entity-uid="part3" data-qualified-name="Provider" data-source-line="3" id="part3-head"><text fill="#000000" font-family="sans-serif" font-size="14" lengthAdjust="spacing" textLength="114.3857" x="320.8901" y="77.9951">Service Provider</text><ellipse cx="381.083" cy="13.5" fill="#E2E2F0" rx="8" ry="8" style="stroke:#181818;stroke-width:0.5;"/><path d="M381.083,21.5 L381.083,48.5 M368.083,29.5 L394.083,29.5 M381.083,48.5 L368.083,63.5 M381.083,48.5 L394.083,63.5" fill="none" style="stroke:#181818;stroke-width:0.5;"/></g><g class="participant participant-tail" data-entity-uid="part3" data-qualified-name="Provider" data-source-line="3" id="part3-tail"><text fill="#000000" font-family="sans-serif" font-size="14" lengthAdjust="spacing" textLength="114.3857" x="320.8901" y="701.9482">Service Provider</text><ellipse cx="381.083" cy="713.75" fill="#E2E2F0" rx="8" ry="8" style="stroke:#181818;stroke-width:0.5;"/><path d="M381.083,721.75 L381.083,748.75 M368.083,729.75 L394.083,729.75 M381.083,748.75 L368.083,763.75 M381.083,748.75 L394.083,763.75" fill="none" style="stroke:#181818;stroke-width:0.5;"/></g><g class="message" data-entity-1="part1" data-entity-2="part2" data-source-line="6" id="msg1"><polygon fill="#181818" points="180.9326,108.4297,190.9326,112.4297,180.9326,116.4297,184.9326,112.4297" style="stroke:#181818;stroke-width:1;"/><line style="stroke:#181818;stroke-width:1;" x1="44.3535" x2="186.9326" y1="112.4297" y2="112.4297"/><text fill="#000000" font-family="sans-serif" font-size="13" lengthAdjust="spacing" textLength="103.8984" x="51.3535" y="107.3638">Search Services</text></g><g class="message" data-entity-1="part2" data-entity-2="part1" data-source-line="7" id="msg2"><polygon fill="#181818" points="55.3535,137.5625,45.3535,141.5625,55.3535,145.5625,51.3535,141.5625" style="stroke:#181818;stroke-width:1;"/><line style="stroke:#181818;stroke-width:1;" x1="49.3535" x2="191.9326" y1="141.5625" y2="141.5625"/><text fill="#000000" font-family="sans-serif" font-size="13" lengthAdjust="spacing" textLength="106.8691" x="61.3535" y="136.4966">Display Services</text></g><g class="message" data-entity-1="part1" data-entity-2="part2" data-source-line="10" id="msg3"><polygon fill="#181818" points="180.9326,166.6953,190.9326,170.6953,180.9326,174.6953,184.9326,170.6953" style="stroke:#181818;stroke-width:1;"/><line style="stroke:#181818;stroke-width:1;" x1="44.3535" x2="186.9326" y1="170.6953" y2="170.6953"/><text fill="#000000" font-family="sans-serif" font-size="13" lengthAdjust="spacing" textLength="105.5679" x="51.3535" y="165.6294">Request Service</text></g><g class="message" data-entity-1="part2" data-entity-2="part3" data-source-line="11" id="msg4"><polygon fill="#181818" points="369.083,195.8281,379.083,199.8281,369.083,203.8281,373.083,199.8281" style="stroke:#181818;stroke-width:1;"/><line style="stroke:#181818;stroke-width:1;" x1="192.9326" x2="375.083" y1="199.8281" y2="199.8281"/><text fill="#000000" font-family="sans-serif" font-size="13" lengthAdjust="spacing" textLength="96.1797" x="199.9326" y="194.7622">Notify Request</text></g><g class="message" data-entity-1="part3" data-entity-2="part2" data-source-line="14" id="msg5"><polygon fill="#181818" points="203.9326,224.9609,193.9326,228.9609,203.9326,232.9609,199.9326,228.9609" style="stroke:#181818;stroke-width:1;"/><line style="stroke:#181818;stroke-width:1;" x1="197.9326" x2="380.083" y1="228.9609" y2="228.9609"/><text fill="#000000" font-family="sans-serif" font-size="13" lengthAdjust="spacing" textLength="117.1016" x="209.9326" y="223.895">Review Pet Profile</text></g><g class="message" data-entity-1="part3" data-entity-2="part2" data-source-line="15" id="msg6"><polygon fill="#181818" points="203.9326,254.0938,193.9326,258.0938,203.9326,262.0938,199.9326,258.0938" style="stroke:#181818;stroke-width:1;"/><line style="stroke:#181818;stroke-width:1;" x1="197.9326" x2="380.083" y1="258.0938" y2="258.0938"/><text fill="#000000" font-family="sans-serif" font-size="13" lengthAdjust="spacing" textLength="101.1245" x="209.9326" y="253.0278">Accept Booking</text></g><g class="message" data-entity-1="part2" data-entity-2="part1" data-source-line="16" id="msg7"><polygon fill="#181818" points="55.3535,283.2266,45.3535,287.2266,55.3535,291.2266,51.3535,287.2266" style="stroke:#181818;stroke-width:1;"/><line style="stroke:#181818;stroke-width:1;" x1="49.3535" x2="191.9326" y1="287.2266" y2="287.2266"/><text fill="#000000" font-family="sans-serif" font-size="13" lengthAdjust="spacing" textLength="103.5747" x="61.3535" y="282.1606">Notify Accepted</text></g><g class="message" data-entity-1="part1" data-entity-2="part2" data-source-line="19" id="msg8"><polygon fill="#181818" points="180.9326,312.3594,190.9326,316.3594,180.9326,320.3594,184.9326,316.3594" style="stroke:#181818;stroke-width:1;"/><line style="stroke:#181818;stroke-width:1;" x1="44.3535" x2="186.9326" y1="316.3594" y2="316.3594"/><text fill="#000000" font-family="sans-serif" font-size="13" lengthAdjust="spacing" textLength="123.9126" x="51.3535" y="311.2935">Propose Time/Date</text></g><g class="message" data-entity-1="part2" data-entity-2="part3" data-source-line="20" id="msg9"><polygon fill="#181818" points="369.083,341.4922,379.083,345.4922,369.083,349.4922,373.083,345.4922" style="stroke:#181818;stroke-width:1;"/><line style="stroke:#181818;stroke-width:1;" x1="192.9326" x2="375.083" y1="345.4922" y2="345.4922"/><text fill="#000000" font-family="sans-serif" font-size="13" lengthAdjust="spacing" textLength="98.4839" x="199.9326" y="340.4263">Notify Proposal</text></g><g class="message" data-entity-1="part3" data-entity-2="part2" data-source-line="22" id="msg10"><polygon fill="#181818" points="203.9326,370.625,193.9326,374.625,203.9326,378.625,199.9326,374.625" style="stroke:#181818;stroke-width:1;"/><line style="stroke:#181818;stroke-width:1;" x1="197.9326" x2="380.083" y1="374.625" y2="374.625"/><text fill="#000000" font-family="sans-serif" font-size="13" lengthAdjust="spacing" textLength="118.2568" x="209.9326" y="369.5591">Approve Schedule</text></g><g class="message" data-entity-1="part2" data-entity-2="part1" data-source-line="23" id="msg11"><polygon fill="#181818" points="55.3535,399.7578,45.3535,403.7578,55.3535,407.7578,51.3535,403.7578" style="stroke:#181818;stroke-width:1;"/><line style="stroke:#181818;stroke-width:1;" x1="49.3535" x2="191.9326" y1="403.7578" y2="403.7578"/><text fill="#000000" font-family="sans-serif" font-size="13" lengthAdjust="spacing" textLength="124.5791" x="61.3535" y="398.6919">Booking Scheduled</text></g><g class="message" data-entity-1="part2" data-entity-2="part1" data-source-line="26" id="msg12"><polygon fill="#181818" points="55.3535,428.8906,45.3535,432.8906,55.3535,436.8906,51.3535,432.8906" style="stroke:#181818;stroke-width:1;"/><line style="stroke:#181818;stroke-width:1;" x1="49.3535" x2="191.9326" y1="432.8906" y2="432.8906"/><text fill="#000000" font-family="sans-serif" font-size="13" lengthAdjust="spacing" textLength="111.3252" x="61.3535" y="427.8247">Generate Invoice</text></g><g class="message" data-entity-1="part1" data-entity-2="part2" data-source-line="27" id="msg13"><polygon fill="#181818" points="180.9326,458.0234,190.9326,462.0234,180.9326,466.0234,184.9326,462.0234" style="stroke:#181818;stroke-width:1;"/><line style="stroke:#181818;stroke-width:1;" x1="44.3535" x2="186.9326" y1="462.0234" y2="462.0234"/><text fill="#000000" font-family="sans-serif" font-size="13" lengthAdjust="spacing" textLength="74.1089" x="51.3535" y="456.9575">Pay Invoice</text></g><g class="message" data-entity-1="part2" data-entity-2="part3" data-source-line="28" id="msg14"><polygon fill="#181818" points="369.083,487.1563,379.083,491.1563,369.083,495.1563,373.083,491.1563" style="stroke:#181818;stroke-width:1;"/><line style="stroke:#181818;stroke-width:1;" x1="192.9326" x2="375.083" y1="491.1563" y2="491.1563"/><text fill="#000000" font-family="sans-serif" font-size="13" lengthAdjust="spacing" textLength="164.1504" x="199.9326" y="486.0903">Notify Payment Received</text></g><path d="M133,504.1563 L133,529.1563 L439,529.1563 L439,514.1563 L429,504.1563 L133,504.1563" fill="#FEFFDD" style="stroke:#181818;stroke-width:0.5;"/><path d="M429,504.1563 L429,514.1563 L439,514.1563 L429,504.1563" fill="#FEFFDD" style="stroke:#181818;stroke-width:0.5;"/><text fill="#000000" font-family="sans-serif" font-size="13" lengthAdjust="spacing" textLength="112.8169" x="225.5503" y="521.2231">Service Executed</text><g class="message" data-entity-1="part3" data-entity-2="part2" data-source-line="35" id="msg15"><polygon fill="#181818" points="203.9326,551.4219,193.9326,555.4219,203.9326,559.4219,199.9326,555.4219" style="stroke:#181818;stroke-width:1;"/><line style="stroke:#181818;stroke-width:1;" x1="197.9326" x2="380.083" y1="555.4219" y2="555.4219"/><text fill="#000000" font-family="sans-serif" font-size="13" lengthAdjust="spacing" textLength="155.4287" x="209.9326" y="550.356">Mark Booking Complete</text></g><g class="message" data-entity-1="part1" data-entity-2="part2" data-source-line="38" id="msg16"><polygon fill="#181818" points="180.9326,580.5547,190.9326,584.5547,180.9326,588.5547,184.9326,584.5547" style="stroke:#181818;stroke-width:1;"/><line style="stroke:#181818;stroke-width:1;" x1="44.3535" x2="186.9326" y1="584.5547" y2="584.5547"/><text fill="#000000" font-family="sans-serif" font-size="13" lengthAdjust="spacing" textLength="89.9971" x="51.3535" y="579.4888">Leave Review</text></g><g class="message" data-entity-1="part2" data-entity-2="part3" data-source-line="39" id="msg17"><polygon fill="#181818" points="369.083,609.6875,379.083,613.6875,369.083,617.6875,373.083,613.6875" style="stroke:#181818;stroke-width:1;"/><line style="stroke:#181818;stroke-width:1;" x1="192.9326" x2="375.083" y1="613.6875" y2="613.6875"/><text fill="#000000" font-family="sans-serif" font-size="13" lengthAdjust="spacing" textLength="89.7559" x="199.9326" y="608.6216">Notify Review</text></g><g class="message" data-entity-1="part3" data-entity-2="part2" data-source-line="41" id="msg18"><polygon fill="#181818" points="203.9326,638.8203,193.9326,642.8203,203.9326,646.8203,199.9326,642.8203" style="stroke:#181818;stroke-width:1;"/><line style="stroke:#181818;stroke-width:1;" x1="197.9326" x2="380.083" y1="642.8203" y2="642.8203"/><text fill="#000000" font-family="sans-serif" font-size="13" lengthAdjust="spacing" textLength="89.9971" x="209.9326" y="637.7544">Leave Review</text></g><g class="message" data-entity-1="part2" data-entity-2="part1" data-source-line="42" id="msg19"><polygon fill="#181818" points="55.3535,667.9531,45.3535,671.9531,55.3535,675.9531,51.3535,671.9531" style="stroke:#181818;stroke-width:1;"/><line style="stroke:#181818;stroke-width:1;" x1="49.3535" x2="191.9326" y1="671.9531" y2="671.9531"/><text fill="#000000" font-family="sans-serif" font-size="13" lengthAdjust="spacing" textLength="89.7559" x="61.3535" y="666.8872">Notify Review</text></g><?plantuml-src XPB1JiCm38RlUGfh5ovKk--010mX91ZLoWj4gRU5jKb8iew-FMwJT33QxTGq_lpxjsCklBOmoz73-r6XdG5tuSGCjruAQRZoC7lGUY_L5ehMUQnxAXmP3me5saOAXDpgHfPHAFqmTWDPba61t8eTv3lkiBjWVIN8xg8OB18IvHoB0K82ku2bTARYxGc9uclyEg3p5zKJ4tD_gIUh1AsqbvisiKd-NWWq7kPq_ud2zmM6fByr6eb7w4PAyOsiS9oBWd6o8ur67u73CXdva3N22hSKvLvgDT4grJIQ1j7XyoNtbviDDA_OX5TZw1gX43ii3nMEk1qs92A3tvotDQemiFzfpqXVSWSlgj7TaunqGe-TeXTxY8NMA50s9mDfDP--KHo6YIbDHQad6mlTdhOLpb982bK9NSR4VDwutGyJUDIrgR1Zqs9s2-4ctkaLEGqsC5VsiKV63KoedArIYFy0?></g></svg>