<svg xmlns="http://www.w3.org/2000/svg" xmlns:xlink="http://www.w3.org/1999/xlink" contentStyleType="text/css" data-diagram-type="DESCRIPTION" height="794px" preserveAspectRatio="none" style="width:446px;height:794px;background:#FFFFFF;" version="1.1" viewBox="0 0 446 794" width="446px" zoomAndPan="magnify"><?plantuml 1.2026.3beta6?><defs/><g><!--cluster Support Services System--><g class="cluster" data-qualified-name="Support Services System" data-source-line="7" id="ent0004"><rect fill="none" height="773" rx="2.5" ry="2.5" style="stroke:#181818;stroke-width:1;" width="291.9" x="140.39" y="7"/><text fill="#000000" font-family="sans-serif" font-size="14" font-weight="700" lengthAdjust="spacing" textLength="197.9072" x="187.3864" y="21.9951">Support Services System</text></g><!--cluster Payment & Invoicing--><g class="cluster" data-qualified-name="Support Services System.Payment . Invoicing" data-source-line="9" id="ent0005"><rect fill="none" height="214" rx="2.5" ry="2.5" style="stroke:#181818;stroke-width:1;" width="178.23" x="196.72" y="50"/><text fill="#000000" font-family="sans-serif" font-size="14" font-weight="700" lengthAdjust="spacing" textLength="163.3379" x="204.1661" y="64.9951">Payment &amp; Invoicing</text></g><!--cluster Messaging & Communication--><g class="cluster" data-qualified-name="Support Services System.Messaging . Communication" data-source-line="15" id="ent0009"><rect fill="none" height="229" rx="2.5" ry="2.5" style="stroke:#181818;stroke-width:1;" width="243.9" x="164.39" y="527"/><text fill="#000000" font-family="sans-serif" font-size="14" font-weight="700" lengthAdjust="spacing" textLength="228.9287" x="171.8756" y="541.9951">Messaging &amp; Communication</text></g><!--cluster Review & Rating System--><g class="cluster" data-qualified-name="Support Services System.Review . Rating System" data-source-line="21" id="ent0013"><rect fill="none" height="215" rx="2.5" ry="2.5" style="stroke:#181818;stroke-width:1;" width="208.62" x="181.53" y="288"/><text fill="#000000" font-family="sans-serif" font-size="14" font-weight="700" lengthAdjust="spacing" textLength="193.4844" x="189.0978" y="302.9951">Review &amp; Rating System</text></g><!--entity UC_ViewInvoice--><g class="entity" data-qualified-name="Support Services System.Payment . Invoicing.UC_ViewInvoice" data-source-line="10" id="ent0006"><ellipse cx="285.8436" cy="165.0007" fill="#F1F1F1" rx="65.7036" ry="15.5407" style="stroke:#181818;stroke-width:0.5;"/><text fill="#000000" font-family="sans-serif" font-size="14" lengthAdjust="spacing" textLength="95.3271" x="238.18" y="169.6492">View Invoices</text></g><!--entity UC_Pay--><g class="entity" data-qualified-name="Support Services System.Payment . Invoicing.UC_Pay" data-source-line="11" id="ent0007"><ellipse cx="285.8439" cy="100.0036" fill="#F1F1F1" rx="59.4339" ry="14.5236" style="stroke:#181818;stroke-width:0.5;"/><text fill="#000000" font-family="sans-serif" font-size="14" lengthAdjust="spacing" textLength="79.8096" x="245.9391" y="104.6521">Pay Invoice</text></g><!--entity UC_Earnings--><g class="entity" data-qualified-name="Support Services System.Payment . Invoicing.UC_Earnings" data-source-line="12" id="ent0008"><ellipse cx="285.8446" cy="232.0029" fill="#F1F1F1" rx="69.1146" ry="16.2229" style="stroke:#181818;stroke-width:0.5;"/><text fill="#000000" font-family="sans-serif" font-size="14" lengthAdjust="spacing" textLength="104.1387" x="233.7753" y="236.6514">Track Earnings</text></g><!--entity UC_SendMsg--><g class="entity" data-qualified-name="Support Services System.Messaging . Communication.UC_SendMsg" data-source-line="16" id="ent0010"><ellipse cx="285.8429" cy="578.0026" fill="#F1F1F1" rx="67.9129" ry="15.9826" style="stroke:#181818;stroke-width:0.5;"/><text fill="#000000" font-family="sans-serif" font-size="14" lengthAdjust="spacing" textLength="101.0693" x="235.3082" y="582.651">Send Message</text></g><!--entity UC_ViewMsg--><g class="entity" data-qualified-name="Support Services System.Messaging . Communication.UC_ViewMsg" data-source-line="17" id="ent0011"><ellipse cx="285.8415" cy="724.0003" fill="#F1F1F1" rx="70.1015" ry="16.4203" style="stroke:#181818;stroke-width:0.5;"/><text fill="#000000" font-family="sans-serif" font-size="14" lengthAdjust="spacing" textLength="106.6338" x="232.5246" y="728.6487">View Messages</text></g><!--entity UC_ReadMsg--><g class="entity" data-qualified-name="Support Services System.Messaging . Communication.UC_ReadMsg" data-source-line="18" id="ent0012"><ellipse cx="285.8414" cy="651.0003" fill="#F1F1F1" rx="96.4514" ry="21.6903" style="stroke:#181818;stroke-width:0.5;"/><text fill="#000000" font-family="sans-serif" font-size="14" lengthAdjust="spacing" textLength="168.2051" x="201.7389" y="655.6487">Mark Messages as Read</text></g><!--entity UC_Review--><g class="entity" data-qualified-name="Support Services System.Review . Rating System.UC_Review" data-source-line="22" id="ent0014"><ellipse cx="285.8411" cy="339.0022" fill="#F1F1F1" rx="66.3111" ry="15.6622" style="stroke:#181818;stroke-width:0.5;"/><text fill="#000000" font-family="sans-serif" font-size="14" lengthAdjust="spacing" textLength="96.9199" x="237.3811" y="343.6507">Leave Review</text></g><!--entity UC_ViewReviews--><g class="entity" data-qualified-name="Support Services System.Review . Rating System.UC_ViewReviews" data-source-line="23" id="ent0015"><ellipse cx="285.8439" cy="471.0008" fill="#F1F1F1" rx="65.9039" ry="15.5808" style="stroke:#181818;stroke-width:0.5;"/><text fill="#000000" font-family="sans-serif" font-size="14" lengthAdjust="spacing" textLength="95.8535" x="237.9171" y="475.6492">View Reviews</text></g><!--entity UC_Ratings--><g class="entity" data-qualified-name="Support Services System.Review . Rating System.UC_Ratings" data-source-line="24" id="ent0016"><ellipse cx="285.8408" cy="405.0042" fill="#F1F1F1" rx="63.9708" ry="15.1942" style="stroke:#181818;stroke-width:0.5;"/><text fill="#000000" font-family="sans-serif" font-size="14" lengthAdjust="spacing" textLength="90.7197" x="240.481" y="409.6526">View Ratings</text></g><!--entity Owner--><g class="entity" data-qualified-name="Owner" data-source-line="4" id="ent0002"><ellipse cx="63.1935" cy="320.35" fill="#F1F1F1" rx="8" ry="8" style="stroke:#181818;stroke-width:0.5;"/><path d="M63.1935,328.35 L63.1935,355.35 M50.1935,336.35 L76.1935,336.35 M63.1935,355.35 L50.1935,370.35 M63.1935,355.35 L76.1935,370.35" fill="none" style="stroke:#181818;stroke-width:0.5;"/><text fill="#000000" font-family="sans-serif" font-size="14" lengthAdjust="spacing" textLength="72.707" x="26.84" y="384.8451">Pet Owner</text></g><!--entity Provider--><g class="entity" data-qualified-name="Provider" data-source-line="5" id="ent0003"><ellipse cx="63.1929" cy="431.35" fill="#F1F1F1" rx="8" ry="8" style="stroke:#181818;stroke-width:0.5;"/><path d="M63.1929,439.35 L63.1929,466.35 M50.1929,447.35 L76.1929,447.35 M63.1929,466.35 L50.1929,481.35 M63.1929,466.35 L76.1929,481.35" fill="none" style="stroke:#181818;stroke-width:0.5;"/><text fill="#000000" font-family="sans-serif" font-size="14" lengthAdjust="spacing" textLength="114.3857" x="6" y="495.8451">Service Provider</text></g><!--link Owner to UC_ViewInvoice--><g class="link" data-entity-1="ent0002" data-entity-2="ent0006" data-link-type="dependency" data-source-line="29" id="lnk17"><path d="M75.06,311.55 C84.62,280.81 101.94,239.68 132.39,215 C164.15,189.25 205.5402,183.2478 239.0302,178.4678" fill="none" id="Owner-to-UC_ViewInvoice" style="stroke:#181818;stroke-width:1;"/><polygon fill="#181818" points="244.97,177.62,235.4951,174.9318,240.0202,178.3265,236.6255,182.8515,244.97,177.62" style="stroke:#181818;stroke-width:1;"/></g><!--link Owner to UC_ViewInvoice--><!--link Owner to UC_Pay--><g class="link" data-entity-1="ent0002" data-entity-2="ent0007" data-link-type="dependency" data-source-line="30" id="lnk18"><path d="M64.98,311.51 C68.16,262.43 81.3,178.39 132.39,132 C157.61,109.09 188.9565,101.424 220.3565,99.094" fill="none" id="Owner-to-UC_Pay" style="stroke:#181818;stroke-width:1;"/><polygon fill="#181818" points="226.34,98.65,217.0687,95.327,221.3537,99.02,217.6607,103.305,226.34,98.65" style="stroke:#181818;stroke-width:1;"/></g><!--link Owner to UC_SendMsg--><g class="link" data-entity-1="ent0002" data-entity-2="ent0010" data-link-type="dependency" data-source-line="32" id="lnk19"><path d="M99.91,377.78 C107.88,385.72 115.43,394.96 120.39,405 C139.83,444.34 106.97,467.23 132.39,503 C156.64,537.14 195.1563,554.7553 229.7563,565.2053" fill="none" id="Owner-to-UC_SendMsg" style="stroke:#181818;stroke-width:1;"/><polygon fill="#181818" points="235.5,566.94,228.0409,560.5087,230.7135,565.4944,225.7279,568.167,235.5,566.94" style="stroke:#181818;stroke-width:1;"/></g><!--link Owner to UC_ViewMsg--><g class="link" data-entity-1="ent0002" data-entity-2="ent0011" data-link-type="dependency" data-source-line="33" id="lnk20"><path d="M99.89,376.94 C108.07,385 115.72,394.53 120.39,405 C133.28,433.95 112.05,665.69 132.39,690 C152.57,714.13 179.7972,722.7996 210.0572,725.6896" fill="none" id="Owner-to-UC_ViewMsg" style="stroke:#181818;stroke-width:1;"/><polygon fill="#181818" points="216.03,726.26,207.4511,721.4225,211.0526,725.7846,206.6905,729.3862,216.03,726.26" style="stroke:#181818;stroke-width:1;"/></g><!--link Owner to UC_ReadMsg--><g class="link" data-entity-1="ent0002" data-entity-2="ent0012" data-link-type="dependency" data-source-line="34" id="lnk21"><path d="M99.77,376.99 C107.95,385.05 115.64,394.56 120.39,405 C139.38,446.74 103.33,575.52 132.39,611 C147.3,629.21 163.5823,638.1833 186.3623,644.0933" fill="none" id="Owner-to-UC_ReadMsg" style="stroke:#181818;stroke-width:1;"/><polygon fill="#181818" points="192.17,645.6,184.4629,639.4681,187.3302,644.3444,182.4539,647.2117,192.17,645.6" style="stroke:#181818;stroke-width:1;"/></g><!--link Owner to UC_Review--><g class="link" data-entity-1="ent0002" data-entity-2="ent0014" data-link-type="dependency" data-source-line="36" id="lnk22"><path d="M99.64,348.23 C132.17,346.61 175.1374,344.468 214.5574,342.508" fill="none" id="Owner-to-UC_Review" style="stroke:#181818;stroke-width:1;"/><polygon fill="#181818" points="220.55,342.21,211.3625,338.6619,215.5562,342.4583,211.7597,346.652,220.55,342.21" style="stroke:#181818;stroke-width:1;"/></g><!--link Owner to UC_ViewReviews--><g class="link" data-entity-1="ent0002" data-entity-2="ent0015" data-link-type="dependency" data-source-line="37" id="lnk23"><path d="M99.84,380.11 C107.34,387.67 114.69,396.16 120.39,405 C128.84,418.12 120.63,427.74 132.39,438 C156.15,458.75 183.8972,466.773 213.5772,470.093" fill="none" id="Owner-to-UC_ViewReviews" style="stroke:#181818;stroke-width:1;"/><polygon fill="#181818" points="219.54,470.76,211.0404,465.7843,214.571,470.2042,210.1511,473.7347,219.54,470.76" style="stroke:#181818;stroke-width:1;"/></g><!--link Owner to UC_Ratings--><g class="link" data-entity-1="ent0002" data-entity-2="ent0016" data-link-type="dependency" data-source-line="38" id="lnk24"><path d="M99.74,362.2 C110.19,365.59 121.69,369.13 132.39,372 C166.25,381.1 198.9881,388.2554 228.8781,394.2754" fill="none" id="Owner-to-UC_Ratings" style="stroke:#181818;stroke-width:1;"/><polygon fill="#181818" points="234.76,395.46,226.7269,389.7618,229.8584,394.4728,225.1474,397.6043,234.76,395.46" style="stroke:#181818;stroke-width:1;"/></g><!--link Provider to UC_ViewInvoice--><g class="link" data-entity-1="ent0003" data-entity-2="ent0006" data-link-type="dependency" data-source-line="41" id="lnk25"><path d="M94.18,422.43 C104.33,412.2 114.56,400.8 120.39,388 C129.97,366.93 117.34,197.59 132.39,180 C163.81,143.27 219.7051,140.2811 254.1951,148.8011" fill="none" id="Provider-to-UC_ViewInvoice" style="stroke:#181818;stroke-width:1;"/><polygon fill="#181818" points="260.02,150.24,252.2419,144.1984,255.1659,149.0409,250.3234,151.9649,260.02,150.24" style="stroke:#181818;stroke-width:1;"/></g><!--link UC_ViewInvoice to Provider--><!--link Provider to UC_Earnings--><g class="link" data-entity-1="ent0003" data-entity-2="ent0008" data-link-type="dependency" data-source-line="42" id="lnk26"><path d="M109.72,422.39 C113.86,417.25 117.55,411.75 120.39,406 C140,366.25 106.74,343.15 132.39,307 C156.45,273.08 194.5201,255.5174 229.0101,245.0174" fill="none" id="Provider-to-UC_Earnings" style="stroke:#181818;stroke-width:1;"/><polygon fill="#181818" points="234.75,243.27,224.9752,242.0645,229.9667,244.7262,227.3051,249.7178,234.75,243.27" style="stroke:#181818;stroke-width:1;"/></g><!--link Provider to UC_SendMsg--><g class="link" data-entity-1="ent0003" data-entity-2="ent0010" data-link-type="dependency" data-source-line="44" id="lnk27"><path d="M120.88,496.47 C124.75,498.72 128.61,500.92 132.39,503 C173.44,525.67 216.8717,546.5752 248.0017,561.0852" fill="none" id="Provider-to-UC_SendMsg" style="stroke:#181818;stroke-width:1;"/><polygon fill="#181818" points="253.44,563.62,246.9725,556.1923,248.9081,561.5076,243.5927,563.4433,253.44,563.62" style="stroke:#181818;stroke-width:1;"/></g><!--link Provider to UC_ViewMsg--><g class="link" data-entity-1="ent0003" data-entity-2="ent0011" data-link-type="dependency" data-source-line="45" id="lnk28"><path d="M64.36,499.53 C66.78,550.64 78.99,640.21 132.39,690 C154.6,710.71 180.608,719.0526 209.528,722.7326" fill="none" id="Provider-to-UC_ViewMsg" style="stroke:#181818;stroke-width:1;"/><polygon fill="#181818" points="215.48,723.49,207.0569,718.3859,210.52,722.8589,206.0471,726.3219,215.48,723.49" style="stroke:#181818;stroke-width:1;"/></g><!--link Provider to UC_ReadMsg--><g class="link" data-entity-1="ent0003" data-entity-2="ent0012" data-link-type="dependency" data-source-line="46" id="lnk29"><path d="M71.91,499.61 C80.75,533.78 98.59,582.52 132.39,611 C150.8,626.52 168.753,634.6295 192.013,640.5095" fill="none" id="Provider-to-UC_ReadMsg" style="stroke:#181818;stroke-width:1;"/><polygon fill="#181818" points="197.83,641.98,190.0848,635.8962,192.9825,640.7546,188.1241,643.6522,197.83,641.98" style="stroke:#181818;stroke-width:1;"/></g><!--link Provider to UC_Review--><g class="link" data-entity-1="ent0003" data-entity-2="ent0014" data-link-type="dependency" data-source-line="48" id="lnk30"><path d="M107.66,422.65 C112.34,417.36 116.72,411.75 120.39,406 C129,392.49 120.36,382.59 132.39,372 C155.95,351.23 183.4976,343.1805 213.1076,339.8505" fill="none" id="Provider-to-UC_Review" style="stroke:#181818;stroke-width:1;"/><polygon fill="#181818" points="219.07,339.18,209.6794,336.2109,214.1013,339.7388,210.5734,344.1608,219.07,339.18" style="stroke:#181818;stroke-width:1;"/></g><!--link Provider to UC_ViewReviews--><g class="link" data-entity-1="ent0003" data-entity-2="ent0015" data-link-type="dependency" data-source-line="49" id="lnk31"><path d="M120.73,463.56 C151.24,464.95 183.0361,466.3889 214.6561,467.8189" fill="none" id="Provider-to-UC_ViewReviews" style="stroke:#181818;stroke-width:1;"/><polygon fill="#181818" points="220.65,468.09,211.8399,463.6875,215.6551,467.8641,211.4785,471.6793,220.65,468.09" style="stroke:#181818;stroke-width:1;"/></g><!--link Provider to UC_Ratings--><g class="link" data-entity-1="ent0003" data-entity-2="ent0016" data-link-type="dependency" data-source-line="50" id="lnk32"><path d="M120.6,441.43 C124.58,440.22 128.53,439.06 132.39,438 C166.06,428.71 198.6257,421.5725 228.4857,415.6225" fill="none" id="Provider-to-UC_Ratings" style="stroke:#181818;stroke-width:1;"/><polygon fill="#181818" points="234.37,414.45,224.7618,412.2859,229.4664,415.4271,226.3252,420.1317,234.37,414.45" style="stroke:#181818;stroke-width:1;"/></g><?plantuml-src RPB1JiCm38RlVGfhXt7QAt2PE21j0gt01I5ajLuNRKsg9Ese4EzEqiQPidI7ARO_s_-Vva972rQ15it9GYqqLLOeMPYpa1rgRA73wemDbNQy4FWookP2HO6LLHfMhsJXvIf9hm3DVE9IINeG5S6hLeEe0y51KSHPZkoxJcaBeSD0EHfBxGf-Ym9OWTk5OqlImXgUvQ149MJZ4N2_tb25nZ4VWgwXJ6RQ-BxzzicGIsataM5cNIfbthJR3q-efTiNHtBisBz4v9wCmSQLdCojQjjUYWhzdMPIIv8rp7ZSxdDxqonu2c3YAIFtgC-HzE21iEOEVvuxKiK76lo2DHoSJgVxTld9x1tXG333jv4-Mb0x5nAn8RK4JtiZ7C99frFw45xLz0-RpUFz5qqA_lEb6RxIh3zByWNTPoUFMJlxIU6WtQcEBvqFIzhlQ_5PPHMsiJHjAH_Dv8N9pz8SjfIrt5pjS5IzXQFuOUEV9r7N9BzoSscOaBpX7m00?></g></svg>