<svg xmlns="http://www.w3.org/2000/svg" xmlns:xlink="http://www.w3.org/1999/xlink" contentStyleType="text/css" data-diagram-type="DESCRIPTION" height="963px" preserveAspectRatio="none" style="width:429px;height:963px;background:#FFFFFF;" version="1.1" viewBox="0 0 429 963" width="429px" zoomAndPan="magnify"><?plantuml 1.2026.3beta6?><defs/><g><!--cluster Booking Management System--><g class="cluster" data-qualified-name="Booking Management System" data-source-line="6" id="ent0004"><rect fill="none" height="942" rx="2.5" ry="2.5" style="stroke:#181818;stroke-width:1;" width="250.87" x="164.39" y="7"/><text fill="#000000" font-family="sans-serif" font-size="14" font-weight="700" lengthAdjust="spacing" textLength="235.1221" x="172.264" y="21.9951">Booking Management System</text></g><!--entity UC1--><g class="entity" data-qualified-name="Booking Management System.UC1" data-source-line="8" id="ent0005"><ellipse cx="289.8184" cy="413.0017" fill="#F1F1F1" rx="72.2084" ry="16.8417" style="stroke:#181818;stroke-width:0.5;"/><text fill="#000000" font-family="sans-serif" font-size="14" lengthAdjust="spacing" textLength="111.8906" x="233.8731" y="417.6501">Search Services</text></g><!--entity UC2--><g class="entity" data-qualified-name="Booking Management System.UC2" data-source-line="9" id="ent0006"><ellipse cx="289.816" cy="342.0032" fill="#F1F1F1" rx="85.166" ry="19.4332" style="stroke:#181818;stroke-width:0.5;"/><text fill="#000000" font-family="sans-serif" font-size="14" lengthAdjust="spacing" textLength="142.707" x="218.4625" y="346.6516">View Service Details</text></g><!--entity UC3--><g class="entity" data-qualified-name="Booking Management System.UC3" data-source-line="10" id="ent0007"><ellipse cx="289.8171" cy="270.9974" fill="#F1F1F1" rx="72.9371" ry="16.9874" style="stroke:#181818;stroke-width:0.5;"/><text fill="#000000" font-family="sans-serif" font-size="14" lengthAdjust="spacing" textLength="113.6885" x="232.9728" y="275.6459">Request Service</text></g><!--entity UC4--><g class="entity" data-qualified-name="Booking Management System.UC4" data-source-line="11" id="ent0008"><ellipse cx="289.8203" cy="201.0041" fill="#F1F1F1" rx="78.2703" ry="18.0541" style="stroke:#181818;stroke-width:0.5;"/><text fill="#000000" font-family="sans-serif" font-size="14" lengthAdjust="spacing" textLength="126.5811" x="226.5298" y="205.6525">View My Bookings</text></g><!--entity UC5--><g class="entity" data-qualified-name="Booking Management System.UC5" data-source-line="12" id="ent0009"><ellipse cx="289.8178" cy="128.9956" fill="#F1F1F1" rx="81.1778" ry="18.6356" style="stroke:#181818;stroke-width:0.5;"/><text fill="#000000" font-family="sans-serif" font-size="14" lengthAdjust="spacing" textLength="133.4443" x="223.0957" y="133.644">Propose Time/Date</text></g><!--entity UC6--><g class="entity" data-qualified-name="Booking Management System.UC6" data-source-line="13" id="ent0010"><ellipse cx="289.8234" cy="58.9987" fill="#F1F1F1" rx="70.7934" ry="16.5587" style="stroke:#181818;stroke-width:0.5;"/><text fill="#000000" font-family="sans-serif" font-size="14" lengthAdjust="spacing" textLength="108.3701" x="235.6384" y="63.6471">Cancel Booking</text></g><!--entity UC7--><g class="entity" data-qualified-name="Booking Management System.UC7" data-source-line="14" id="ent0011"><ellipse cx="289.8191" cy="484.9958" fill="#F1F1F1" rx="87.7791" ry="19.9558" style="stroke:#181818;stroke-width:0.5;"/><text fill="#000000" font-family="sans-serif" font-size="14" lengthAdjust="spacing" textLength="148.6953" x="215.4715" y="489.6443">Track Booking Status</text></g><!--entity UC8--><g class="entity" data-qualified-name="Booking Management System.UC8" data-source-line="16" id="ent0012"><ellipse cx="289.8157" cy="911.9971" fill="#F1F1F1" rx="94.4357" ry="21.2871" style="stroke:#181818;stroke-width:0.5;"/><text fill="#000000" font-family="sans-serif" font-size="14" lengthAdjust="spacing" textLength="163.7139" x="207.9587" y="916.6456">View Booking Requests</text></g><!--entity UC9--><g class="entity" data-qualified-name="Booking Management System.UC9" data-source-line="17" id="ent0013"><ellipse cx="289.8167" cy="839.0013" fill="#F1F1F1" rx="71.0067" ry="16.6013" style="stroke:#181818;stroke-width:0.5;"/><text fill="#000000" font-family="sans-serif" font-size="14" lengthAdjust="spacing" textLength="108.9033" x="235.365" y="843.6498">Accept Booking</text></g><!--entity UC10--><g class="entity" data-qualified-name="Booking Management System.UC10" data-source-line="18" id="ent0014"><ellipse cx="289.8188" cy="769.9958" fill="#F1F1F1" rx="72.7788" ry="16.9558" style="stroke:#181818;stroke-width:0.5;"/><text fill="#000000" font-family="sans-serif" font-size="14" lengthAdjust="spacing" textLength="113.2988" x="233.1694" y="774.6442">Decline Booking</text></g><!--entity UC11--><g class="entity" data-qualified-name="Booking Management System.UC11" data-source-line="19" id="ent0015"><ellipse cx="289.8172" cy="699.9994" fill="#F1F1F1" rx="75.8472" ry="17.5694" style="stroke:#181818;stroke-width:0.5;"/><text fill="#000000" font-family="sans-serif" font-size="14" lengthAdjust="spacing" textLength="120.7773" x="229.4285" y="704.6479">Negotiate Timing</text></g><!--entity UC12--><g class="entity" data-qualified-name="Booking Management System.UC12" data-source-line="20" id="ent0016"><ellipse cx="289.8222" cy="629.0044" fill="#F1F1F1" rx="77.7222" ry="17.9444" style="stroke:#181818;stroke-width:0.5;"/><text fill="#000000" font-family="sans-serif" font-size="14" lengthAdjust="spacing" textLength="125.2754" x="227.1845" y="633.6529">Schedule Booking</text></g><!--entity UC13--><g class="entity" data-qualified-name="Booking Management System.UC13" data-source-line="21" id="ent0017"><ellipse cx="289.8221" cy="557.9984" fill="#F1F1F1" rx="79.0421" ry="18.2084" style="stroke:#181818;stroke-width:0.5;"/><text fill="#000000" font-family="sans-serif" font-size="14" lengthAdjust="spacing" textLength="128.4131" x="225.6156" y="562.6469">Complete Booking</text></g><!--entity Owner--><g class="entity" data-qualified-name="Owner" data-source-line="3" id="ent0002"><ellipse cx="63.1935" cy="241.35" fill="#F1F1F1" rx="8" ry="8" style="stroke:#181818;stroke-width:0.5;"/><path d="M63.1935,249.35 L63.1935,276.35 M50.1935,257.35 L76.1935,257.35 M63.1935,276.35 L50.1935,291.35 M63.1935,276.35 L76.1935,291.35" fill="none" style="stroke:#181818;stroke-width:0.5;"/><text fill="#000000" font-family="sans-serif" font-size="14" lengthAdjust="spacing" textLength="72.707" x="26.84" y="305.8451">Pet Owner</text></g><!--entity Provider--><g class="entity" data-qualified-name="Provider" data-source-line="4" id="ent0003"><ellipse cx="63.1929" cy="705.35" fill="#F1F1F1" rx="8" ry="8" style="stroke:#181818;stroke-width:0.5;"/><path d="M63.1929,713.35 L63.1929,740.35 M50.1929,721.35 L76.1929,721.35 M63.1929,740.35 L50.1929,755.35 M63.1929,740.35 L76.1929,755.35" fill="none" style="stroke:#181818;stroke-width:0.5;"/><text fill="#000000" font-family="sans-serif" font-size="14" lengthAdjust="spacing" textLength="114.3857" x="6" y="769.8451">Service Provider</text></g><!--link Owner to UC1--><g class="link" data-entity-1="ent0002" data-entity-2="ent0005" data-link-type="dependency" data-source-line="24" id="lnk18"><path d="M88.14,309.56 C104.59,332.96 128.46,361.58 156.39,379 C177.13,391.94 196.7552,398.7034 219.8152,403.6834" fill="none" id="Owner-to-UC1" style="stroke:#181818;stroke-width:1;"/><polygon fill="#181818" points="225.68,404.95,217.7272,399.1403,220.7927,403.8945,216.0384,406.96,225.68,404.95" style="stroke:#181818;stroke-width:1;"/></g><!--link Owner to UC2--><g class="link" data-entity-1="ent0002" data-entity-2="ent0006" data-link-type="dependency" data-source-line="25" id="lnk19"><path d="M99.86,284.92 C116.86,291.36 137.56,298.91 156.39,305 C181.14,313.01 203.0399,319.3369 226.6699,325.7569" fill="none" id="Owner-to-UC2" style="stroke:#181818;stroke-width:1;"/><polygon fill="#181818" points="232.46,327.33,224.8236,321.1103,227.6349,326.0191,222.7261,328.8304,232.46,327.33" style="stroke:#181818;stroke-width:1;"/></g><!--link Owner to UC3--><g class="link" data-entity-1="ent0002" data-entity-2="ent0007" data-link-type="dependency" data-source-line="26" id="lnk20"><path d="M99.79,271 C131.08,271 171.61,271 210.67,271" fill="none" id="Owner-to-UC3" style="stroke:#181818;stroke-width:1;"/><polygon fill="#181818" points="216.67,271,207.67,267,211.67,271,207.67,275,216.67,271" style="stroke:#181818;stroke-width:1;"/></g><!--link Owner to UC4--><g class="link" data-entity-1="ent0002" data-entity-2="ent0008" data-link-type="dependency" data-source-line="27" id="lnk21"><path d="M99.84,257.02 C116.84,250.57 137.54,243.02 156.39,237 C182.15,228.77 205.297,222.285 229.537,215.915" fill="none" id="Owner-to-UC4" style="stroke:#181818;stroke-width:1;"/><polygon fill="#181818" points="235.34,214.39,225.6189,212.8088,230.5042,215.6608,227.6522,220.5461,235.34,214.39" style="stroke:#181818;stroke-width:1;"/></g><!--link Owner to UC5--><g class="link" data-entity-1="ent0002" data-entity-2="ent0009" data-link-type="dependency" data-source-line="28" id="lnk22"><path d="M88.93,232.52 C105.45,209.75 129.11,182.11 156.39,165 C175.86,152.78 193.6539,146.0939 215.5139,140.7139" fill="none" id="Owner-to-UC5" style="stroke:#181818;stroke-width:1;"/><polygon fill="#181818" points="221.34,139.28,211.6449,137.5467,216.4849,140.4749,213.5567,145.3149,221.34,139.28" style="stroke:#181818;stroke-width:1;"/></g><!--link Owner to UC6--><g class="link" data-entity-1="ent0002" data-entity-2="ent0010" data-link-type="dependency" data-source-line="29" id="lnk23"><path d="M73.94,232.7 C86.3,191.98 111.59,128.65 156.39,93 C175.24,78 194.0837,70.7621 217.0637,66.0221" fill="none" id="Owner-to-UC6" style="stroke:#181818;stroke-width:1;"/><polygon fill="#181818" points="222.94,64.81,213.3175,62.7106,218.0431,65.8201,214.9336,70.5457,222.94,64.81" style="stroke:#181818;stroke-width:1;"/></g><!--link Owner to UC7--><g class="link" data-entity-1="ent0002" data-entity-2="ent0011" data-link-type="dependency" data-source-line="30" id="lnk24"><path d="M74.48,309.37 C87.19,349.46 112.67,411.37 156.39,447 C172.8,460.37 187.9073,467.4399 208.2173,473.0599" fill="none" id="Owner-to-UC7" style="stroke:#181818;stroke-width:1;"/><polygon fill="#181818" points="214,474.66,206.3927,468.4047,209.1811,473.3266,204.2592,476.1149,214,474.66" style="stroke:#181818;stroke-width:1;"/></g><!--link Provider to UC8--><g class="link" data-entity-1="ent0003" data-entity-2="ent0012" data-link-type="dependency" data-source-line="32" id="lnk25"><path d="M80.77,773.53 C96.07,804.7 121.68,847.48 156.39,873 C172.9,885.14 187.3936,891.8276 207.0536,897.6076" fill="none" id="Provider-to-UC8" style="stroke:#181818;stroke-width:1;"/><polygon fill="#181818" points="212.81,899.3,205.3037,892.9239,208.013,897.8897,203.0472,900.599,212.81,899.3" style="stroke:#181818;stroke-width:1;"/></g><!--link Provider to UC9--><g class="link" data-entity-1="ent0003" data-entity-2="ent0013" data-link-type="dependency" data-source-line="33" id="lnk26"><path d="M108.37,773.45 C122.9,784.59 139.65,795.91 156.39,804 C180.04,815.44 202.1001,822.1963 226.1801,827.6863" fill="none" id="Provider-to-UC9" style="stroke:#181818;stroke-width:1;"/><polygon fill="#181818" points="232.03,829.02,224.1443,823.1195,227.1551,827.9086,222.366,830.9194,232.03,829.02" style="stroke:#181818;stroke-width:1;"/></g><!--link Provider to UC10--><g class="link" data-entity-1="ent0003" data-entity-2="ent0014" data-link-type="dependency" data-source-line="34" id="lnk27"><path d="M120.88,743.83 C153.63,748.94 188.8917,754.4253 222.2917,759.6353" fill="none" id="Provider-to-UC10" style="stroke:#181818;stroke-width:1;"/><polygon fill="#181818" points="228.22,760.56,219.944,755.2207,223.2797,759.7894,218.711,763.1251,228.22,760.56" style="stroke:#181818;stroke-width:1;"/></g><!--link Provider to UC11--><g class="link" data-entity-1="ent0003" data-entity-2="ent0015" data-link-type="dependency" data-source-line="35" id="lnk28"><path d="M120.88,726.17 C152.85,721.19 186.9414,715.873 219.8914,710.743" fill="none" id="Provider-to-UC11" style="stroke:#181818;stroke-width:1;"/><polygon fill="#181818" points="225.82,709.82,216.3118,707.2521,220.8795,710.5892,217.5425,715.1569,225.82,709.82" style="stroke:#181818;stroke-width:1;"/></g><!--link Provider to UC12--><g class="link" data-entity-1="ent0003" data-entity-2="ent0016" data-link-type="dependency" data-source-line="36" id="lnk29"><path d="M107.86,696.41 C122.5,685 139.44,673.34 156.39,665 C178.83,653.95 199.3092,647.325 222.5492,641.685" fill="none" id="Provider-to-UC12" style="stroke:#181818;stroke-width:1;"/><polygon fill="#181818" points="228.38,640.27,218.6905,638.5054,223.521,641.4492,220.5772,646.2797,228.38,640.27" style="stroke:#181818;stroke-width:1;"/></g><!--link Provider to UC13--><g class="link" data-entity-1="ent0003" data-entity-2="ent0017" data-link-type="dependency" data-source-line="37" id="lnk30"><path d="M79.97,696.4 C95.01,664.36 120.66,619.97 156.39,594 C174.89,580.55 192.3082,573.5405 214.1382,568.2605" fill="none" id="Provider-to-UC13" style="stroke:#181818;stroke-width:1;"/><polygon fill="#181818" points="219.97,566.85,210.2819,565.0779,215.1101,568.0255,212.1626,572.8537,219.97,566.85" style="stroke:#181818;stroke-width:1;"/></g><?plantuml-src PP91Ry8m38Nl-HLMxsY30eCBqWPNDhIotQFKAn5fmb8NXARzznKMIqbxotlvz1mxDlX5G0wyhWu4fVQeI3ihX5JaF6Gx97YxMFGPoER_n5S5-hDM23llpheC10iXRadILWOXUt7kg6q5MsbbXJLQWkBQ4DOP_0W1q3QeP8EtIEdL0K9oSq_yM8zZv5FZXG7O84bjc9l4t3j-jzWGem791r7RAuJdSSmqPhf-Jguxx7MD3nj973IBeRMq2Wtd168U4tilrP41A4XIo-MUnE1Dp8KUc5p4uBDIUA9UpMLCR50PRR67Z1zZvXKhHxfhwzPW12KZBzG1ozOCaf9vhrrzCaW3A1U_Gjpt1aQZrVqtOpL9L9weQQ9cYPedgfiXBrvm5drZsJUwGVITyS2P39py3m00?></g></svg>