<svg xmlns="http://www.w3.org/2000/svg" xmlns:xlink="http://www.w3.org/1999/xlink" contentStyleType="text/css" data-diagram-type="DESCRIPTION" height="855px" preserveAspectRatio="none" style="width:441px;height:855px;background:#FFFFFF;" version="1.1" viewBox="0 0 441 855" width="441px" zoomAndPan="magnify"><?plantuml 1.2026.3beta6?><defs/><g><!--cluster Authentication & Profile System--><g class="cluster" data-qualified-name="Authentication . Profile System" data-source-line="7" id="ent0004"><rect fill="none" height="834" rx="2.5" ry="2.5" style="stroke:#181818;stroke-width:1;" width="287.35" x="140.21" y="7"/><text fill="#000000" font-family="sans-serif" font-size="14" font-weight="700" lengthAdjust="spacing" textLength="254.3516" x="156.7092" y="21.9951">Authentication &amp; Profile System</text></g><!--cluster Authentication--><g class="cluster" data-qualified-name="Authentication . Profile System.Authentication" data-source-line="9" id="ent0005"><rect fill="none" height="211" rx="2.5" ry="2.5" style="stroke:#181818;stroke-width:1;" width="166.4" x="200.69" y="367"/><text fill="#000000" font-family="sans-serif" font-size="14" font-weight="700" lengthAdjust="spacing" textLength="117.2363" x="225.2718" y="381.9951">Authentication</text></g><!--cluster Pet Management--><g class="cluster" data-qualified-name="Authentication . Profile System.Pet Management" data-source-line="15" id="ent0009"><rect fill="none" height="293" rx="2.5" ry="2.5" style="stroke:#181818;stroke-width:1;" width="185" x="191.39" y="50"/><text fill="#000000" font-family="sans-serif" font-size="14" font-weight="700" lengthAdjust="spacing" textLength="134.374" x="216.703" y="64.9951">Pet Management</text></g><!--cluster Service Listing Management--><g class="cluster" data-qualified-name="Authentication . Profile System.Service Listing Management" data-source-line="22" id="ent0014"><rect fill="none" height="215" rx="2.5" ry="2.5" style="stroke:#181818;stroke-width:1;" width="239.35" x="164.21" y="602"/><text fill="#000000" font-family="sans-serif" font-size="14" font-weight="700" lengthAdjust="spacing" textLength="224.5332" x="171.6184" y="616.9951">Service Listing Management</text></g><!--entity UC_Register--><g class="entity" data-qualified-name="Authentication . Profile System.Authentication.UC_Register" data-source-line="10" id="ent0006"><ellipse cx="283.8928" cy="417.0036" fill="#F1F1F1" rx="44.2028" ry="14.5236" style="stroke:#181818;stroke-width:0.5;"/><text fill="#000000" font-family="sans-serif" font-size="14" lengthAdjust="spacing" textLength="58.2695" x="254.758" y="421.6521">Register</text></g><!--entity UC_Login--><g class="entity" data-qualified-name="Authentication . Profile System.Authentication.UC_Login" data-source-line="11" id="ent0007"><ellipse cx="283.8904" cy="547.0036" fill="#F1F1F1" rx="29.8804" ry="14.5236" style="stroke:#181818;stroke-width:0.5;"/><text fill="#000000" font-family="sans-serif" font-size="14" lengthAdjust="spacing" textLength="38.0146" x="264.8831" y="551.6521">Login</text></g><!--entity UC_UpdateProfile--><g class="entity" data-qualified-name="Authentication . Profile System.Authentication.UC_UpdateProfile" data-source-line="12" id="ent0008"><ellipse cx="283.8923" cy="482.0005" fill="#F1F1F1" rx="67.2023" ry="15.8405" style="stroke:#181818;stroke-width:0.5;"/><text fill="#000000" font-family="sans-serif" font-size="14" lengthAdjust="spacing" textLength="99.2373" x="234.2737" y="486.6489">Update Profile</text></g><!--entity UC_CreatePet--><g class="entity" data-qualified-name="Authentication . Profile System.Pet Management.UC_CreatePet" data-source-line="16" id="ent0010"><ellipse cx="283.8931" cy="309.0006" fill="#F1F1F1" rx="76.5031" ry="17.7006" style="stroke:#181818;stroke-width:0.5;"/><text fill="#000000" font-family="sans-serif" font-size="14" lengthAdjust="spacing" textLength="122.3564" x="222.7148" y="313.6491">Create Pet Profile</text></g><!--entity UC_EditPet--><g class="entity" data-qualified-name="Authentication . Profile System.Pet Management.UC_EditPet" data-source-line="17" id="ent0011"><ellipse cx="283.8867" cy="239.9953" fill="#F1F1F1" rx="68.5267" ry="16.1053" style="stroke:#181818;stroke-width:0.5;"/><text fill="#000000" font-family="sans-serif" font-size="14" lengthAdjust="spacing" textLength="102.6416" x="232.5659" y="244.6438">Edit Pet Profile</text></g><!--entity UC_DeletePet--><g class="entity" data-qualified-name="Authentication . Profile System.Pet Management.UC_DeletePet" data-source-line="18" id="ent0012"><ellipse cx="283.8892" cy="171.0018" fill="#F1F1F1" rx="76.1592" ry="17.6318" style="stroke:#181818;stroke-width:0.5;"/><text fill="#000000" font-family="sans-serif" font-size="14" lengthAdjust="spacing" textLength="121.5293" x="223.1246" y="175.6503">Delete Pet Profile</text></g><!--entity UC_ViewPet--><g class="entity" data-qualified-name="Authentication . Profile System.Pet Management.UC_ViewPet" data-source-line="19" id="ent0013"><ellipse cx="283.8896" cy="102.0039" fill="#F1F1F1" rx="71.0696" ry="16.6139" style="stroke:#181818;stroke-width:0.5;"/><text fill="#000000" font-family="sans-serif" font-size="14" lengthAdjust="spacing" textLength="109.0605" x="229.3594" y="106.6524">View Pet Profile</text></g><!--entity UC_CreateService--><g class="entity" data-qualified-name="Authentication . Profile System.Service Listing Management.UC_CreateService" data-source-line="23" id="ent0015"><ellipse cx="283.8941" cy="718.0048" fill="#F1F1F1" rx="68.6741" ry="16.1348" style="stroke:#181818;stroke-width:0.5;"/><text fill="#000000" font-family="sans-serif" font-size="14" lengthAdjust="spacing" textLength="103.0176" x="232.3853" y="722.6532">Create Service</text></g><!--entity UC_EditService--><g class="entity" data-qualified-name="Authentication . Profile System.Service Listing Management.UC_EditService" data-source-line="24" id="ent0016"><ellipse cx="283.8946" cy="652.0029" fill="#F1F1F1" rx="61.2646" ry="14.6529" style="stroke:#181818;stroke-width:0.5;"/><text fill="#000000" font-family="sans-serif" font-size="14" lengthAdjust="spacing" textLength="83.3027" x="242.2432" y="656.6514">Edit Service</text></g><!--entity UC_DeleteService--><g class="entity" data-qualified-name="Authentication . Profile System.Service Listing Management.UC_DeleteService" data-source-line="25" id="ent0017"><ellipse cx="283.8902" cy="785" fill="#F1F1F1" rx="68.3502" ry="16.07" style="stroke:#181818;stroke-width:0.5;"/><text fill="#000000" font-family="sans-serif" font-size="14" lengthAdjust="spacing" textLength="102.1904" x="232.795" y="789.6485">Delete Service</text></g><!--entity Owner--><g class="entity" data-qualified-name="Owner" data-source-line="4" id="ent0002"><ellipse cx="63.1935" cy="333.35" fill="#F1F1F1" rx="8" ry="8" style="stroke:#181818;stroke-width:0.5;"/><path d="M63.1935,341.35 L63.1935,368.35 M50.1935,349.35 L76.1935,349.35 M63.1935,368.35 L50.1935,383.35 M63.1935,368.35 L76.1935,383.35" fill="none" style="stroke:#181818;stroke-width:0.5;"/><text fill="#000000" font-family="sans-serif" font-size="14" lengthAdjust="spacing" textLength="72.707" x="26.84" y="397.8451">Pet Owner</text></g><!--entity Provider--><g class="entity" data-qualified-name="Provider" data-source-line="5" id="ent0003"><ellipse cx="63.1929" cy="517.35" fill="#F1F1F1" rx="8" ry="8" style="stroke:#181818;stroke-width:0.5;"/><path d="M63.1929,525.35 L63.1929,552.35 M50.1929,533.35 L76.1929,533.35 M63.1929,552.35 L50.1929,567.35 M63.1929,552.35 L76.1929,567.35" fill="none" style="stroke:#181818;stroke-width:0.5;"/><text fill="#000000" font-family="sans-serif" font-size="14" lengthAdjust="spacing" textLength="114.3857" x="6" y="581.8451">Service Provider</text></g><!--link Owner to UC_Register--><g class="link" data-entity-1="ent0002" data-entity-2="ent0006" data-link-type="dependency" data-source-line="30" id="lnk18"><path d="M99.82,381.51 C137.94,394.72 192.5307,408.9192 233.4507,415.6992" fill="none" id="Owner-to-UC_Register" style="stroke:#181818;stroke-width:1;"/><polygon fill="#181818" points="239.37,416.68,231.1449,411.2627,234.4373,415.8627,229.8372,419.1551,239.37,416.68" style="stroke:#181818;stroke-width:1;"/></g><!--link Owner to UC_Register--><!--link Owner to UC_Login--><g class="link" data-entity-1="ent0002" data-entity-2="ent0007" data-link-type="dependency" data-source-line="31" id="lnk19"><path d="M80.92,401.5 C100.27,445.89 129.81,513.06 132.21,515 C167.05,543.15 214.81,548.1418 247.81,548.2418" fill="none" id="Owner-to-UC_Login" style="stroke:#181818;stroke-width:1;"/><polygon fill="#181818" points="253.81,548.26,244.8222,544.2327,248.81,548.2448,244.7979,552.2327,253.81,548.26" style="stroke:#181818;stroke-width:1;"/></g><!--link Owner to UC_UpdateProfile--><g class="link" data-entity-1="ent0002" data-entity-2="ent0008" data-link-type="dependency" data-source-line="32" id="lnk20"><path d="M86.17,401.53 C97.77,418.54 113.49,437.3 132.21,449 C157.99,465.11 184.5972,472.5247 212.8272,476.7847" fill="none" id="Owner-to-UC_UpdateProfile" style="stroke:#181818;stroke-width:1;"/><polygon fill="#181818" points="218.76,477.68,210.4576,472.3819,213.816,476.9339,209.2639,480.2923,218.76,477.68" style="stroke:#181818;stroke-width:1;"/></g><!--link Owner to UC_CreatePet--><g class="link" data-entity-1="ent0002" data-entity-2="ent0010" data-link-type="dependency" data-source-line="34" id="lnk21"><path d="M99.82,354.2 C135.28,345.45 184.285,333.3486 224.695,323.3686" fill="none" id="Owner-to-UC_CreatePet" style="stroke:#181818;stroke-width:1;"/><polygon fill="#181818" points="230.52,321.93,220.8235,320.2046,225.6658,323.1288,222.7416,327.9712,230.52,321.93" style="stroke:#181818;stroke-width:1;"/></g><!--link Owner to UC_EditPet--><g class="link" data-entity-1="ent0002" data-entity-2="ent0011" data-link-type="dependency" data-source-line="35" id="lnk22"><path d="M85.05,324.55 C96.66,306.6 112.73,286.49 132.21,274 C157.61,257.72 183.8639,250.1188 211.9539,245.6688" fill="none" id="Owner-to-UC_EditPet" style="stroke:#181818;stroke-width:1;"/><polygon fill="#181818" points="217.88,244.73,208.365,242.1875,212.9416,245.5123,209.6167,250.0889,217.88,244.73" style="stroke:#181818;stroke-width:1;"/></g><!--link Owner to UC_DeletePet--><g class="link" data-entity-1="ent0002" data-entity-2="ent0012" data-link-type="dependency" data-source-line="36" id="lnk23"><path d="M70.7,324.47 C78.82,288.49 96.28,235.96 132.21,206 C153.56,188.2 176.3661,180.0827 202.9961,175.5227" fill="none" id="Owner-to-UC_DeletePet" style="stroke:#181818;stroke-width:1;"/><polygon fill="#181818" points="208.91,174.51,199.364,172.0864,203.9817,175.3539,200.7142,179.9716,208.91,174.51" style="stroke:#181818;stroke-width:1;"/></g><!--link Owner to UC_ViewPet--><g class="link" data-entity-1="ent0002" data-entity-2="ent0013" data-link-type="dependency" data-source-line="37" id="lnk24"><path d="M64.48,324.39 C67.05,273.66 79.42,185.26 132.21,136 C153.78,115.88 178.6849,107.5801 206.8649,103.7401" fill="none" id="Owner-to-UC_ViewPet" style="stroke:#181818;stroke-width:1;"/><polygon fill="#181818" points="212.81,102.93,203.3523,100.1818,207.8558,103.6051,204.4325,108.1085,212.81,102.93" style="stroke:#181818;stroke-width:1;"/></g><!--link Provider to UC_Register--><g class="link" data-entity-1="ent0003" data-entity-2="ent0006" data-link-type="dependency" data-source-line="40" id="lnk25"><path d="M74.69,508.6 C85.69,481.78 105.14,449 132.21,431 C171.19,405.09 221.3609,398.7306 252.9609,403.6306" fill="none" id="Provider-to-UC_Register" style="stroke:#181818;stroke-width:1;"/><polygon fill="#181818" points="258.89,404.55,250.6092,399.2182,253.949,403.7838,249.3834,407.1237,258.89,404.55" style="stroke:#181818;stroke-width:1;"/></g><!--link UC_Register to Provider--><!--link Provider to UC_Login--><g class="link" data-entity-1="ent0003" data-entity-2="ent0007" data-link-type="dependency" data-source-line="41" id="lnk26"><path d="M120.8,547 C163.32,547 213.84,547 247.67,547" fill="none" id="Provider-to-UC_Login" style="stroke:#181818;stroke-width:1;"/><polygon fill="#181818" points="253.67,547,244.67,543,248.67,547,244.67,551,253.67,547" style="stroke:#181818;stroke-width:1;"/></g><!--link Provider to UC_UpdateProfile--><g class="link" data-entity-1="ent0003" data-entity-2="ent0008" data-link-type="dependency" data-source-line="42" id="lnk27"><path d="M120.59,519.31 C124.48,517.76 128.38,516.3 132.21,515 C163.15,504.49 192.9253,497.6193 221.7853,492.1393" fill="none" id="Provider-to-UC_UpdateProfile" style="stroke:#181818;stroke-width:1;"/><polygon fill="#181818" points="227.68,491.02,218.0918,488.7692,222.7678,491.9527,219.5842,496.6287,227.68,491.02" style="stroke:#181818;stroke-width:1;"/></g><!--link Provider to UC_CreateService--><g class="link" data-entity-1="ent0003" data-entity-2="ent0015" data-link-type="dependency" data-source-line="44" id="lnk28"><path d="M73.41,585.36 C82.92,616.59 100.89,659.39 132.21,684 C155.83,702.56 181.6808,710.5279 209.9808,714.5879" fill="none" id="Provider-to-UC_CreateService" style="stroke:#181818;stroke-width:1;"/><polygon fill="#181818" points="215.92,715.44,207.5792,710.2025,210.9707,714.73,206.4432,718.1214,215.92,715.44" style="stroke:#181818;stroke-width:1;"/></g><!--link Provider to UC_EditService--><g class="link" data-entity-1="ent0003" data-entity-2="ent0016" data-link-type="dependency" data-source-line="45" id="lnk29"><path d="M120.8,574.18 C163.95,594.9 216.1107,619.9439 249.7607,636.0939" fill="none" id="Provider-to-UC_EditService" style="stroke:#181818;stroke-width:1;"/><polygon fill="#181818" points="255.17,638.69,248.7869,631.1896,250.6623,636.5266,245.3254,638.402,255.17,638.69" style="stroke:#181818;stroke-width:1;"/></g><!--link Provider to UC_DeleteService--><g class="link" data-entity-1="ent0003" data-entity-2="ent0017" data-link-type="dependency" data-source-line="46" id="lnk30"><path d="M65.95,585.6 C70.22,632.04 84.56,709.1 132.21,752 C154.7,772.25 180.7446,780.3201 209.4646,783.8401" fill="none" id="Provider-to-UC_DeleteService" style="stroke:#181818;stroke-width:1;"/><polygon fill="#181818" points="215.42,784.57,206.9735,779.5048,210.4571,783.9617,206.0002,787.4454,215.42,784.57" style="stroke:#181818;stroke-width:1;"/></g><?plantuml-src ZLF1Ri8m3BtdAwmUjXE_C6bYkp4D3R7BD4rHQugrag8qmD34lyyXDU2qXt50pdlFphETDhWA45hmLAy3LEIn3DGwqtsJsrflDx2rvRUjSH6E3KAahQiRDCQMeVLGp370wy6XBy1sAH9gWNvF9SBSjtkgUeKSZBdKWk9n5zRe0fKsNWvtKRKYPXR7Bk2cW5zZG9payiW2_tOTbhPZ-WrhuhHqttBw9MUjchKrEP6S3vfVRYiRK9o8CA4zo0adPImEuyKwZZViRs1iwl5SabLPsSGmeHEUAmfZyeWFn4_Ou7Zrn0mItWaFO_A89x7kJlOvuscIg__HQP-Xk-p1aKupUSH6nNsdcJoXruIJOVlt_PCy_yDayg0UX4BJ6r2GthRchYjJiAn6WTS5A5W6pIulduK40wyvaUpcQEOuf_K6SlPsu3cdfykEP_ROxWAiw4UQ-bXJLQ7xp8pVn4eZD_m1?></g></svg>